<?xml version="1.0" encoding="utf-8"?>
<!-- Generator: Adobe Illustrator 19.1.1, SVG Export Plug-In . SVG Version: 6.00 Build 0)  -->
<svg version="1.1" id="Ebene_1" xmlns="http://www.w3.org/2000/svg" xmlns:xlink="http://www.w3.org/1999/xlink" x="0px" y="0px"
	 viewBox="0 0 41.8 42.9" style="enable-background:new 0 0 41.8 42.9;" xml:space="preserve">
<style type="text/css">
	.st0{fill-rule:evenodd;clip-rule:evenodd;fill:#414042;}
	.st1{fill-rule:evenodd;clip-rule:evenodd;}
	.st2{fill:#FFFFFF;}
	.st3{fill-rule:evenodd;clip-rule:evenodd;fill:#FFFFFF;}
</style>
<g>
	<g>
		<path class="st3" d="M3.4,9.3c4.9-2.7,8.9-3.3,14,1.3c0.1,0,0.1,0,0.1-0.1c-1.9-2.3-5.1-6.2-5.8-6.9c-0.1-0.1-0.2-0.1-0.3-0.2
			c-1.3-0.1-7.1,0.9-8.2,5.7C3.1,9.3,3.3,9.4,3.4,9.3z"/>
		<g>
			<path class="st3" d="M37.7,33.9c0.1-0.1-0.1-0.2-0.2-0.2c-1.5,0.9-4.1,2.5-7.5-0.2c-0.1-0.1-0.2,0-0.1,0.1c0.7,1,2.3,3.4,3.3,4
				C34.3,38.3,36.8,35.4,37.7,33.9z"/>
			<path class="st3" d="M41.1,30.6c-0.1-0.1-0.2-0.2-0.3-0.3c-1.3-0.7-2.5-1.4-3.9-2.5c-1.6-1.2-3.4-2.8-5.4-4.8
				c-4.7-4.7-10.8-11.8-18.6-21.6c-0.2-0.2-0.4-0.3-0.7-0.4c-0.3,0-0.7-0.1-1-0.1C9.9,1,8.6,1.3,7.3,1.7C6.2,2.2,5.1,2.8,4.1,3.6
				C3.2,4.4,2.4,5.3,1.8,6.2c-0.3,0.5-0.5,1-0.7,1.4C1,8.1,0.9,8.6,0.9,9.1c0,0.5,0.1,1,0.3,1.4c0.1,0.2,0.3,0.4,0.5,0.5
				c1.9,1,3.8,2.1,5.6,3.2c1.7,1.1,3.3,2.2,4.8,3.3c1.4,1.1,2.8,2.2,4.1,3.3c1.2,1,2.4,2.1,3.5,3.3c1.9,1.9,3.6,3.9,5.3,6.2
				c1.5,1.9,2.7,3.7,3.8,5.3C30,37.4,31,38.9,32,40c0,0,0.1,0.1,0.1,0.1c0.3,0.2,0.7,0.4,1.1,0.4c0.4,0,0.9-0.1,1.4-0.4
				c0.4-0.2,0.8-0.5,1.3-0.9c1-0.8,1.9-1.9,2.5-2.6c0.8-0.9,1.5-2,2-2.8c0.9-1.4,1-2,1-2.3C41.4,31,41.2,30.8,41.1,30.6z M22.4,23.3
				c-1,1-2.9-0.9-5.5-3.1c-3.8-3.3-8.5-6.8-14.6-10C2.2,10.2,2.1,10.1,2,9.9c-1-3.3,4.4-8.3,9.8-7.9c0.1,0,0.3,0.1,0.4,0.2
				c4,5,7.6,9.4,10.6,12.9C23.7,17.3,23.7,22,22.4,23.3z M40.3,31.6c-0.5,1.8-5.9,9-7.5,7.8c-2.2-2.4-4.6-6.9-9.1-12.2
				c1.7-1.8,3.5-3.6,5.2-5.3c5.3,5.5,8.6,7.9,11.2,9.3C40.3,31.2,40.4,31.4,40.3,31.6z"/>
		</g>
		<path class="st3" d="M33.5,4.5c-0.4-0.1-5,4.6-11,10.4c-0.1,0.1-2.4,2.3-1.8,4.3c0.5,2.4,1.3,4.2,0.2,4.1
			c-0.6-0.1-3.7-2.8-4.1-3.1C12.3,24.5,7.5,28.9,3.3,32c-0.1,0.1-0.2,0.2-0.2,0.4c0.5,2.8,6.3,8,9.6,8.3c0.1,0,0.3-0.1,0.4-0.2
			C19.6,30.4,33.5,16,40.8,13c0.2-0.1,0.3-0.2,0.3-0.4C41.9,7.6,35.2,4.7,33.5,4.5z M12.7,38.7c-0.5,0.6-2.1,0.1-4.9-2.1
			c-1.7-1.4-2.7-2.9-3-3.6c-0.1-0.1,0.1-0.2,0.2-0.2c5,2.5,6.8,2.3,13.8-1.9c0.1-0.1,0.2,0.1,0.1,0.2C15.1,35.5,13.2,38.2,12.7,38.7
			z M30,9.5c-0.1,0.1-0.2,0-0.1-0.1C30.9,8,33.3,5.8,34,6c2.5,0.8,4.5,3.2,5.3,4.1c0.1,0.1,0,0.2-0.2,0.2C33.5,7.5,31.3,8.6,30,9.5z
			"/>
	</g>
</g>
</svg>
